<svg xmlns="http://www.w3.org/2000/svg" viewBox="-67.6 -33.0 154.4 129.9" role="img" aria-hidden="true">
  <g stroke-linejoin="round">
  <polygon points="0.00,9.42 76.80,53.74 19.20,86.98 -57.60,42.66" fill="#1D1D1F" stroke="none" opacity="0.13"/>
  <polygon points="76.80,44.32 19.20,77.56 19.20,54.61 76.80,21.37" fill="#E6E6EB" stroke="#1D1D1F" stroke-width="2.2"/>
  <polygon points="-57.60,33.24 19.20,77.56 19.20,54.61 -57.60,10.29" fill="#CDCDD5" stroke="#1D1D1F" stroke-width="2.2"/>
  <polygon points="0.00,-22.95 76.80,21.37 19.20,54.61 -57.60,10.29" fill="#FFFFFF" stroke="#1D1D1F" stroke-width="2.2"/>
  <polygon points="58.80,20.68 18.00,44.22 18.00,40.98 58.80,17.44" fill="#E6E6EB" stroke="#1D1D1F" stroke-width="2.2"/>
  <polygon points="-39.60,10.98 18.00,44.22 18.00,40.98 -39.60,7.74" fill="#CDCDD5" stroke="#1D1D1F" stroke-width="2.2"/>
  <polygon points="1.20,-15.80 58.80,17.44 18.00,40.98 -39.60,7.74" fill="#FFFFFF" stroke="#1D1D1F" stroke-width="2.2"/>
  <polygon points="0.00,-9.57 27.60,6.36 8.40,17.44 -19.20,1.51" fill="#BDEDF6" stroke="#1B94AC" stroke-width="1.6"/>
  <polyline points="-27.60,6.36 20.40,34.06" fill="none" stroke="#1D1D1F" stroke-width="1.5" stroke-linecap="round" stroke-linejoin="round"/>
  <polyline points="34.80,10.51 48.00,18.13" fill="none" stroke="#1D1D1F" stroke-width="1.5" stroke-linecap="round" stroke-linejoin="round"/>
  <polyline points="26.40,15.36 39.60,22.98" fill="none" stroke="#1D1D1F" stroke-width="1.5" stroke-linecap="round" stroke-linejoin="round"/>
  <polyline points="18.00,20.21 31.20,27.83" fill="none" stroke="#1D1D1F" stroke-width="1.5" stroke-linecap="round" stroke-linejoin="round"/>
  </g>
</svg>
